<?xml version="1.0" encoding="UTF-8"?>
<!DOCTYPE svg PUBLIC "-//W3C//DTD SVG 1.1//EN" "http://www.w3.org/Graphics/SVG/1.1/DTD/svg11.dtd">
<!-- Creator: CorelDRAW 2020 (64-Bit) -->
<?xml-stylesheet href="icon1024.css" type="text/css"?>
<svg xmlns="http://www.w3.org/2000/svg" xml:space="preserve" width="1024px" height="1024px" version="1.1" style="shape-rendering:geometricPrecision; text-rendering:geometricPrecision; image-rendering:optimizeQuality; fill-rule:evenodd; clip-rule:evenodd"
viewBox="0 0 1024 1024"
 xmlns:xlink="http://www.w3.org/1999/xlink"
 xmlns:xodm="http://www.corel.com/coreldraw/odm/2003">
 <defs>
   <clipPath id="id0" style="clip-rule:nonzero">
    <path d="M262.981 666.991c-20.114,0 -37.749,-3.789 -52.904,-11.366 -15.154,-7.577 -26.933,-18.185 -35.338,-31.825 -8.403,-13.639 -12.606,-29.551 -12.606,-47.737l0 -128.126c0,-18.461 4.203,-34.442 12.606,-47.944 8.405,-13.501 20.184,-24.041 35.338,-31.618 15.155,-7.577 32.79,-11.366 52.904,-11.366 20.39,0 38.093,3.789 53.11,11.366 15.017,7.577 26.728,18.117 35.132,31.618 8.404,13.502 12.605,29.483 12.605,47.944l-61.996 0c0,-12.124 -3.375,-21.354 -10.126,-27.692 -6.751,-6.337 -16.326,-9.506 -28.725,-9.506 -12.399,0 -21.974,3.169 -28.725,9.506 -6.751,6.338 -10.126,15.568 -10.126,27.692l0 128.126c0,11.848 3.375,21.01 10.126,27.485 6.751,6.475 16.326,9.713 28.725,9.713 12.399,0 21.974,-3.238 28.725,-9.713 6.751,-6.475 10.126,-15.637 10.126,-27.485l61.996 0c0,18.186 -4.201,34.098 -12.605,47.737 -8.404,13.64 -20.115,24.248 -35.132,31.825 -15.017,7.577 -32.72,11.366 -53.11,11.366z"/>
   </clipPath>
   <clipPath id="id1" style="clip-rule:nonzero">
    <path d="M509.314 666.991c-21.217,0 -39.678,-3.582 -55.384,-10.746 -15.706,-7.164 -27.829,-17.221 -36.371,-30.172 -8.542,-12.95 -12.813,-28.243 -12.813,-45.877l61.997 0c0,10.195 3.926,18.255 11.779,24.179 7.853,5.924 18.53,8.886 32.032,8.886 12.95,0 23.076,-2.893 30.378,-8.68 7.302,-5.786 10.953,-13.777 10.953,-23.972 0,-8.817 -2.756,-16.394 -8.267,-22.732 -5.511,-6.337 -13.226,-10.608 -23.145,-12.812l-30.585 -7.026c-25.625,-6.062 -45.533,-17.291 -59.723,-33.685 -14.19,-16.395 -21.286,-36.44 -21.286,-60.137 0,-26.452 8.956,-47.599 26.866,-63.443 17.91,-15.843 42.157,-23.765 72.742,-23.765 30.861,0 55.314,7.646 73.362,22.938 18.048,15.293 27.072,35.89 27.072,61.79l-61.996 0c0,-9.643 -3.375,-17.221 -10.126,-22.732 -6.751,-5.51 -16.464,-8.266 -29.139,-8.266 -11.848,0 -20.941,2.687 -27.278,8.06 -6.338,5.373 -9.506,13.019 -9.506,22.938 0,8.818 2.549,16.326 7.646,22.526 5.098,6.199 12.33,10.401 21.699,12.606l32.238 7.439c26.727,6.062 46.98,17.015 60.757,32.858 13.776,15.844 20.665,36.027 20.665,60.55 0,17.635 -4.34,33.203 -13.019,46.704 -8.68,13.502 -20.804,23.972 -36.372,31.412 -15.567,7.44 -33.96,11.159 -55.176,11.159z"/>
   </clipPath>
   <clipPath id="id2" style="clip-rule:nonzero">
    <path d="M757.299 666.991c-21.216,0 -39.677,-3.582 -55.383,-10.746 -15.706,-7.164 -27.829,-17.221 -36.371,-30.172 -8.542,-12.95 -12.813,-28.243 -12.813,-45.877l61.997 0c0,10.195 3.926,18.255 11.779,24.179 7.853,5.924 18.53,8.886 32.031,8.886 12.951,0 23.077,-2.893 30.379,-8.68 7.301,-5.786 10.953,-13.777 10.953,-23.972 0,-8.817 -2.756,-16.394 -8.267,-22.732 -5.511,-6.337 -13.226,-10.608 -23.145,-12.812l-30.585 -7.026c-25.625,-6.062 -45.533,-17.291 -59.723,-33.685 -14.19,-16.395 -21.286,-36.44 -21.286,-60.137 0,-26.452 8.955,-47.599 26.865,-63.443 17.911,-15.843 42.158,-23.765 72.743,-23.765 30.86,0 55.314,7.646 73.362,22.938 18.048,15.293 27.072,35.89 27.072,61.79l-61.996 0c0,-9.643 -3.375,-17.221 -10.126,-22.732 -6.751,-5.51 -16.464,-8.266 -29.139,-8.266 -11.848,0 -20.941,2.687 -27.278,8.06 -6.338,5.373 -9.506,13.019 -9.506,22.938 0,8.818 2.548,16.326 7.646,22.526 5.097,6.199 12.33,10.401 21.699,12.606l32.238 7.439c26.727,6.062 46.979,17.015 60.757,32.858 13.776,15.844 20.665,36.027 20.665,60.55 0,17.635 -4.34,33.203 -13.019,46.704 -8.68,13.502 -20.804,23.972 -36.372,31.412 -15.568,7.44 -33.96,11.159 -55.177,11.159z"/>
   </clipPath>
 <linearGradient id="id3" gradientUnits="objectBoundingBox" x1="1.43422e-05%" y1="50%" x2="100%" y2="50%">
  <stop offset="0" style="stop-opacity:1; stop-color:#40EF12"/>
  <stop offset="1" style="stop-opacity:1; stop-color:#0080FF"/>
 </linearGradient>
 </defs>
 <g id="Capa_x0020_1">
  <metadata id="CorelCorpID_0Corel-Layer"/>
  <path class="fil0" d="M0 0l1024 0 0 1024 -1024 0 0 -1024zm94.4 93.5l835.2 0 0 837 -835.2 0 0 -837z"/>
  <g>
  </g>
  <g style="clip-path:url(#id0)">
   <g>
    <rect class="fil0" width="1024" height="1024"/>
   </g>
  </g>
  <g style="clip-path:url(#id1)">
   <g>
    <rect class="fil0" width="1024" height="1024"/>
   </g>
  </g>
  <g style="clip-path:url(#id2)">
   <g>
    <rect class="fil0" width="1024" height="1024"/>
   </g>
  </g>
 </g>
</svg>
